<svg xmlns="http://www.w3.org/2000/svg" viewBox="0 0 16 16"><style>.icon-canvas-transparent{opacity:0;fill:#f6f6f6}.icon-vs-out{fill:#f6f6f6}.icon-vs-bg{fill:#424242}.icon-vs-fg{fill:#f0eff1}.icon-vs-action-red{fill:#a1260d}</style><path class="icon-canvas-transparent" d="M16 16H0V0h16v16z" id="canvas"/><path class="icon-vs-out" d="M7 0v.646L6.354 0h-.829L3.97 1.556 2.414 0h-.828L0 1.586v.949L1.495 4.03 0 5.525v.949L1.525 8H1v8h9v-2h4V8h2V0H7zM2.475 8L3.97 6.505 5.465 8h-2.99zM7 8h-.586L7 7.414V8zm0-3.414l-.556-.556L7 3.475v1.111zM11 11h-1V8h1v3z" id="outline"/><path class="icon-vs-bg" d="M8 1v6h4v5H9V9H2v6h7v-2h4V7h2V1H8zm0 13H3v-3h5v3zm6-8H9V3h5v3z" id="iconBg"/><path class="icon-vs-fg" d="M3 11h5v3H3v-3zm6-8v3h5V3H9z" id="iconFg"/><g id="colorAction"><path class="icon-vs-action-red" d="M5.03 4.03L7 6 5.939 7.061l-1.97-1.97L2 7.061.939 6l1.97-1.97-1.97-1.97L2 1l1.97 1.97L5.939 1 7 2.06 5.03 4.03z"/></g></svg>