<svg xmlns="http://www.w3.org/2000/svg" viewBox="0 0 16 16"><style>.st0{opacity:0}.st0,.st1{fill:#f6f6f6}.st2{fill:#424242}.st3{fill:#c27d1a}.st4{fill:#f0eff1}</style><g id="outline"><path class="st0" d="M0 0h16v16H0z"/><path class="st1" d="M7 0v.636L6.621.257 6 .878V0H3v.878L2.379.257.257 2.379.878 3H0v3h.878l-.621.621L1.636 8H1v8h9v-2h4V8h2V0H7zm4 11h-1V8h1v3z"/></g><path class="st2" d="M8 1v.636l.742.743L8.121 3H9v1h5v2H8.121l.621.621L8.363 7H12v5H9V9H2v6h7v-2h4V7h2V1H8zm0 13H3v-2h5v2z" id="icon_x5F_bg"/><path class="st3" d="M8 4H5.707l1.621-1.621-.707-.708L5 3.292V1H4v2.292L2.379 1.671l-.708.708L3.292 4H1v1h2.292L1.671 6.621l.708.707L4 5.707V8h1V5.707l1.621 1.621.707-.707L5.707 5H8V4zM5 5H4V4h1v1z" id="color_x5F_action"/><path class="st4" d="M14 4v2H9V4h5zM3 14h5v-2H3v2z" id="icon_x5F_fg"/></svg>