<svg xmlns="http://www.w3.org/2000/svg" width="16" height="16"><style type="text/css">.icon-canvas-transparent{opacity:0;fill:#F6F6F6;} .icon-vs-out{fill:#F6F6F6;} .icon-vs-bg{fill:#424242;} .icon-vs-fg{fill:#F0EFF1;}</style><path class="icon-canvas-transparent" d="M16 16h-16v-16h16v16z" id="canvas"/><path class="icon-vs-out" d="M6 10h2v1h-2v-1zm10-10v16h-8v-2h-5v-4h-3v-8h8v-2h8zm-8 10h-2v1h2v-1z" id="outline"/><path class="icon-vs-bg" d="M9 7v-1h-2v3h-2v3h4v-3h6v6h-6v-2h-5v-4h-3v-6h6v2h2v-4h6v6h-6zm5-4h-4v3h4v-3zm0 8h-4v3h4v-3zm-8-6h-4v3h4v-3z" id="iconBg"/><path class="icon-vs-fg" d="M14 6h-4v-3h4v3zm0 5h-4v3h4v-3zm-8-6h-4v3h4v-3z" id="iconFg"/></svg>