<svg xmlns="http://www.w3.org/2000/svg" viewBox="0 0 16 16"><style>.st0{opacity:0}.st0,.st1{fill:#f6f6f6}.st2{fill:#424242}.st3{fill:#c27d1a}.st4{fill:#f0eff1}</style><g id="outline"><path class="st0" d="M0 0h16v16H0z"/><path class="st1" d="M15 11V8h-5V7h2V1H7.364L6.621.257 6 .878V0H3v.878L2.379.257.257 2.379.878 3H0v3h.878l-.621.621L2 8.363V11H1v5h15v-5z"/></g><g id="icon_x5F_bg"><path class="st2" d="M14 12V9H9V6h-.879l.621.621L8 7.363V9H3v3H2v3h3v-3H4v-2h4v2H7v3h3v-3H9v-2h4v2h-1v3h3v-3h-1zM4 14H3v-1h1v1zm5 0H8v-1h1v1zm5 0h-1v-1h1v1zM8.363 2l.379.379L8.121 3H10v2H9v1h2V2z"/></g><path class="st3" d="M8 4H5.707l1.621-1.621-.707-.708L5 3.292V1H4v2.292L2.379 1.671l-.708.708L3.292 4H1v1h2.292L1.671 6.621l.708.707L4 5.707V8h1V5.707l1.621 1.621.707-.707L5.707 5H8V4zM5 5H4V4h1v1z" id="color_x5F_action"/><g id="icon_x5F_fg"><path class="st4" d="M8 13h1v1H8zM3 13h1v1H3zM9 3h1v2H9zM13 13h1v1h-1z"/></g></svg>